<svg width="1000" height="1000" viewBox="0 0 1000 1000" fill="none" xmlns="http://www.w3.org/2000/svg">
<path d="M500 22L685.803 129.584L891 248.398V770.615L500 977L109 750.602V228.385L500 22Z" fill="#EAC072"/>
<path d="M500 977L109 750.602V228.385L500 22L891 248.398V770.615L500 977ZM891 248.398L500 454.783M500 454.783L109 228.385M500 454.783V977M685.803 129.584L294.803 335.969" stroke="#4A2000" stroke-width="10"/>
<path d="M610 449L590 460.196V873L610 861.804V449Z" fill="black" stroke="black"/>
<path d="M823 338L803 349.196V762L823 750.804V338Z" fill="black" stroke="black"/>
<path d="M631 439L621 444.623V785L631 778.868V439Z" fill="black" stroke="black"/>
<path d="M650 428L639 433.639V775L650 768.85V428Z" fill="black" stroke="black"/>
<path d="M739 381L728 386.639V728L739 721.85V381Z" fill="black" stroke="black"/>
<path d="M719 393L708 398.623V811L719 804.752V393Z" fill="black" stroke="black"/>
<path d="M795 352L785 357.639V699L795 692.85V352Z" fill="black" stroke="black"/>
<path d="M776 363L766 368.639V710L776 703.85V363Z" fill="black" stroke="black"/>
<path d="M700 402L658 423.886V766L700 742.172V402Z" fill="black" stroke="black"/>
</svg>
